<svg viewBox="0 0 369.685393258427 110.60393258426967" preserveAspectRatio="xMidYMid meet" class="css-116ckqy"
    id="ggbdcbfh">
    <defs id="SvgjsDefs7406"></defs>
    <g id="SvgjsG7407" featurekey="S6ay6y-0"
        transform="matrix(1.3654806491885145,0,0,1.3654806491885145,-13.013028919920048,-19.15769444571601)"
        fill="#ffffff">
        <path xmlns="http://www.w3.org/2000/svg"
            d="M14.03,50.03l13.5,13.5l13.5-13.5l-13.5-13.5L14.03,50.03 M27.53,32.03l18,18l-18,18l-18-18L27.53,32.03"
            style="fill-rule: evenodd; clip-rule: evenodd;"></path>
        <path xmlns="http://www.w3.org/2000/svg"
            d="M27.53,54.53l4.5-4.5l-4.5-4.5l-4.5,4.5L27.53,54.53 M18.53,50.03l9-9l9,9l-9,9L18.53,50.03"
            style="fill-rule: evenodd; clip-rule: evenodd;"></path>
        <path xmlns="http://www.w3.org/2000/svg"
            d="M68.03,72.53l-18-18l-18,18l18,18L68.03,72.53 M72.53,72.53l-22.5,22.5l-22.5-22.5l22.5-22.5L72.53,72.53"
            style="fill-rule: evenodd; clip-rule: evenodd;"></path>
        <path xmlns="http://www.w3.org/2000/svg"
            d="M59.03,72.53l-9-9l-9,9l9,9L59.03,72.53 M63.53,72.53l-13.5,13.5l-13.5-13.5l13.5-13.5L63.53,72.53"
            style="fill-rule: evenodd; clip-rule: evenodd;"></path>
        <polyline xmlns="http://www.w3.org/2000/svg"
            points="54.53,72.53 50.03,77.03 45.53,72.53 50.03,68.03 54.53,72.53 "
            style="fill-rule: evenodd; clip-rule: evenodd;"></polyline>
        <path xmlns="http://www.w3.org/2000/svg"
            d="M41.03,27.53l9,9l9-9l-9-9L41.03,27.53 M36.53,27.53l13.5-13.5l13.5,13.5l-13.5,13.5L36.53,27.53"
            style="fill-rule: evenodd; clip-rule: evenodd;"></path>
        <polyline xmlns="http://www.w3.org/2000/svg"
            points="45.53,27.53 50.03,23.03 54.53,27.53 50.03,32.03 45.53,27.53 "
            style="fill-rule: evenodd; clip-rule: evenodd;"></polyline>
        <path xmlns="http://www.w3.org/2000/svg"
            d="M72.53,45.53l-4.5,4.5l4.5,4.5l4.5-4.5L72.53,45.53 M81.53,50.03l-9,9l-9-9l9-9L81.53,50.03"
            style="fill-rule: evenodd; clip-rule: evenodd;"></path>
    </g>
    <g id="SvgjsG7408" featurekey="j5pGhi-0"
        transform="matrix(2.6387649455442586,0,0,2.6387649455442586,117.99999874173882,21.220188091837244)"
        fill="#ffffff">
        <path
            d="M9.88 15.32 l0.9 -1.56 l2.72 4.68 l1.8 0 c-0.4 -0.64 -4.2 -7.14 -4.52 -7.78 l-3.92 6.8 l-1.46 2.54 l-5.4 0 c0.3 -0.5 2.32 -4.02 4.26 -7.4 c1.14 -1.98 2.4 -4.2 3.82 -6.62 l1.8 0 l-3.72 6.44 l-3.46 6.02 l1.8 0 c2.46 -4.34 4 -6.9 6.28 -10.9 c0.14 0.24 7.18 12.44 7.22 12.46 l-5.4 0 z M23.16 15.3 c1.28 0 2.36 1.08 2.36 2.36 c0 1.3 -1.08 2.34 -2.36 2.34 c-1.3 0 -2.34 -1.04 -2.34 -2.34 c0 -1.28 1.04 -2.36 2.34 -2.36 z M23.16 18.44 c0.46 0 0.78 -0.36 0.78 -0.78 c0 -0.46 -0.32 -0.78 -0.78 -0.78 c-0.42 0 -0.78 0.32 -0.78 0.78 c0 0.42 0.36 0.78 0.78 0.78 z M33 20 l-4.68 0 l0 -14.02 l4.68 0 l0 10.9 l-1.56 0 l0 -9.34 l-1.56 0 l0 10.9 l3.12 0 l0 1.56 z M38.16 15.3 c1.28 0 2.36 1.08 2.36 2.36 c0 1.3 -1.08 2.34 -2.36 2.34 c-1.3 0 -2.34 -1.04 -2.34 -2.34 c0 -1.28 1.04 -2.36 2.34 -2.36 z M38.16 18.44 c0.46 0 0.78 -0.36 0.78 -0.78 c0 -0.46 -0.32 -0.78 -0.78 -0.78 c-0.42 0 -0.78 0.32 -0.78 0.78 c0 0.42 0.36 0.78 0.78 0.78 z M52.76 13.92 l4.48 -7.94 l4.96 0 l0 14.02 l-4.68 0 l0 -5.24 l-2.98 5.24 l-3.58 0 l-4.54 -7.96 l0 -2.94 l5.46 9.34 l1.76 0 l5.44 -9.34 l0 9.34 l1.56 0 l0 -10.9 l-2.5 0 l-5.42 9.36 l-5.34 -9.36 l-2.5 0 l0 10.9 l1.54 0 l0 -2.94 l1.56 2.68 l0 1.82 l-4.66 0 l0 -14.02 l4.96 0 z M67.36 15.3 c1.28 0 2.36 1.08 2.36 2.36 c0 1.3 -1.08 2.34 -2.36 2.34 c-1.3 0 -2.34 -1.04 -2.34 -2.34 c0 -1.28 1.04 -2.36 2.34 -2.36 z M67.36 18.44 c0.46 0 0.78 -0.36 0.78 -0.78 c0 -0.46 -0.32 -0.78 -0.78 -0.78 c-0.42 0 -0.78 0.32 -0.78 0.78 c0 0.42 0.36 0.78 0.78 0.78 z M84.25999999999999 13.780000000000001 c-7.94 0 -8.06 -0.02 -8.16 -0.02 l-0.04 0 c-2 -0.16 -3.54 -1.86 -3.54 -3.88 c0 -2.16 1.74 -3.9 3.9 -3.9 l8.4 0 c1.68 0 3.04 1.36 3.04 3.06 l0 1.62 l-11.38 0 l-0.02 0 l-0.02 0 c-0.46 -0.02 -0.76 -0.36 -0.76 -0.78 s0.32 -0.76 0.74 -0.78 l9.88 0 l0 -0.04 c0 -0.86 -0.66 -1.52 -1.52 -1.52 l-8.36 0 c-1.28 0 -2.34 1.04 -2.34 2.34 c0 1.2 0.9 2.16 2.04 2.32 c7.98 0 8.06 0.02 8.2 0.02 c2 0.16 3.54 1.88 3.54 3.88 c0 2.16 -1.74 3.9 -3.88 3.9 l-8.42 0 c-1.68 0 -3.04 -1.36 -3.04 -3.04 l0 -1.64 l11.46 0 c0.98 0.06 0.98 1.5 0 1.56 l-9.9 0 l0 0.04 c0 0.86 0.66 1.52 1.52 1.52 l8.38 0 c1.26 0 2.34 -1 2.34 -2.34 c0 -1.2 -0.9 -2.16 -2.06 -2.32 z M93.02 15.3 c1.28 0 2.36 1.08 2.36 2.36 c0 1.3 -1.08 2.34 -2.36 2.34 c-1.3 0 -2.34 -1.04 -2.34 -2.34 c0 -1.28 1.04 -2.36 2.34 -2.36 z M93.02 18.44 c0.46 0 0.78 -0.36 0.78 -0.78 c0 -0.46 -0.32 -0.78 -0.78 -0.78 c-0.42 0 -0.78 0.32 -0.78 0.78 c0 0.42 0.36 0.78 0.78 0.78 z">
        </path>
    </g>
</svg>