<svg class="css-ze2te4 css-qd6ojx" viewBox="0 0 98.31460674157304 110.60393258426967">
    <g transform="translate(-13.013028919920048, -19.15769444571601) scale(1.3654806491885145)" class="css-1e98oqk"
        fill="#ffffff">
        <path xmlns="http://www.w3.org/2000/svg"
            d="M14.03,50.03l13.5,13.5l13.5-13.5l-13.5-13.5L14.03,50.03 M27.53,32.03l18,18l-18,18l-18-18L27.53,32.03"
            style="fill-rule: evenodd; clip-rule: evenodd;"></path>
        <path xmlns="http://www.w3.org/2000/svg"
            d="M27.53,54.53l4.5-4.5l-4.5-4.5l-4.5,4.5L27.53,54.53 M18.53,50.03l9-9l9,9l-9,9L18.53,50.03"
            style="fill-rule: evenodd; clip-rule: evenodd;"></path>
        <path xmlns="http://www.w3.org/2000/svg"
            d="M68.03,72.53l-18-18l-18,18l18,18L68.03,72.53 M72.53,72.53l-22.5,22.5l-22.5-22.5l22.5-22.5L72.53,72.53"
            style="fill-rule: evenodd; clip-rule: evenodd;"></path>
        <path xmlns="http://www.w3.org/2000/svg"
            d="M59.03,72.53l-9-9l-9,9l9,9L59.03,72.53 M63.53,72.53l-13.5,13.5l-13.5-13.5l13.5-13.5L63.53,72.53"
            style="fill-rule: evenodd; clip-rule: evenodd;"></path>
        <polyline xmlns="http://www.w3.org/2000/svg"
            points="54.53,72.53 50.03,77.03 45.53,72.53 50.03,68.03 54.53,72.53 "
            style="fill-rule: evenodd; clip-rule: evenodd;"></polyline>
        <path xmlns="http://www.w3.org/2000/svg"
            d="M41.03,27.53l9,9l9-9l-9-9L41.03,27.53 M36.53,27.53l13.5-13.5l13.5,13.5l-13.5,13.5L36.53,27.53"
            style="fill-rule: evenodd; clip-rule: evenodd;"></path>
        <polyline xmlns="http://www.w3.org/2000/svg"
            points="45.53,27.53 50.03,23.03 54.53,27.53 50.03,32.03 45.53,27.53 "
            style="fill-rule: evenodd; clip-rule: evenodd;"></polyline>
        <path xmlns="http://www.w3.org/2000/svg"
            d="M72.53,45.53l-4.5,4.5l4.5,4.5l4.5-4.5L72.53,45.53 M81.53,50.03l-9,9l-9-9l9-9L81.53,50.03"
            style="fill-rule: evenodd; clip-rule: evenodd;"></path>
    </g>
</svg>