<svg width="271" height="62" viewBox="0 0 271 62" fill="none" xmlns="http://www.w3.org/2000/svg">
    <path
        d="M11.659 0.000400543L37.214 50.4172L31.356 61.9973L0 0.000400543H11.659ZM46.385 0.133301L56.775 10.3202V51.5061L46.385 61.8667V0.133301ZM112.703 31.1804C116.316 34.6934 118.123 38.9518 118.125 43.9527C118.125 48.8978 116.318 53.1539 112.703 56.7285C109.146 60.2435 104.841 61.9989 99.78 61.9989V51.6361C100.863 51.6361 101.889 51.4425 102.852 51.0535C103.815 50.6684 104.659 50.1322 105.382 49.447C106.106 48.7618 106.66 47.9412 107.054 46.9888C107.443 46.0365 107.641 45.0242 107.641 43.9521C107.641 41.8694 106.858 40.0538 105.291 38.5034C103.786 36.9551 101.949 36.1807 99.78 36.1807H84.148C79.087 36.1807 74.778 34.4233 71.227 30.9103C67.669 27.3973 65.893 23.1102 65.893 18.0469C65.893 13.1035 67.671 8.8766 71.227 5.3614C74.722 1.7884 79.029 0 84.148 0V10.3646C83.065 10.3646 82.04 10.5561 81.076 10.9452C80.113 11.3342 79.269 11.8839 78.547 12.5981C77.824 13.3123 77.266 14.1484 76.875 15.1006C76.483 16.0528 76.287 17.0361 76.287 18.0463C76.287 20.1909 77.039 22.0374 78.547 23.5857C80.05 25.1341 81.918 25.9064 84.148 25.9064H99.78C104.841 25.9064 109.148 27.6674 112.703 31.1804ZM127.329 0.133301L137.72 10.3202V51.5061L127.329 61.8667V0.133301ZM200.331 9.1139C206.536 15.1896 209.639 22.4867 209.64 31.0006C209.64 39.6368 206.537 46.9339 200.333 52.8873C194.246 58.963 186.869 62 178.194 62C169.519 62 162.137 58.9613 156.054 52.8873C149.908 46.8719 146.836 39.5766 146.836 31.0006C146.836 22.4845 149.908 15.1896 156.054 9.1139C162.078 3.0382 169.458 0.00130081 178.194 0.00130081C186.867 0.00130081 194.246 3.04 200.331 9.1139ZM192.922 45.6496C197.018 41.5406 199.066 36.6592 199.066 30.9998C199.066 25.3443 197.018 20.4922 192.922 16.4411C188.827 12.39 183.916 10.3656 178.194 10.3656C172.472 10.3656 167.531 12.3901 163.375 16.4411C159.338 20.4902 157.319 25.3421 157.319 30.9998C157.319 36.6574 159.337 41.541 163.375 45.6496C167.531 49.6407 172.469 51.6363 178.194 51.6363C183.915 51.6363 188.825 49.6408 192.922 45.6496ZM260.533 0.000400543H271V61.9995L218.845 15.6723V0.000600815L260.534 37.1102L260.533 0.000400543Z"
        fill="#0067FF" />
</svg>