<svg width="423" height="96" viewBox="0 0 423 96" fill="none" xmlns="http://www.w3.org/2000/svg">
    <path
        d="M12.2453 5H31.9686L51.2238 44.3705L39.8176 32.8386L28.7484 9.84561H17.0755L69.805 61.9359V68.5986L5 5H12.2453Z"
        fill="#0067FF" />
    <path
        d="M125.956 5H106.434L94.3585 30.2375L99.7924 24.5843L108.245 13.8836L111.465 9.84561H121.327L69.805 61.9359V68.5986L80.2704 58.0998L69.805 79.0974L70.5094 77.6841L62.3585 67.791L55.5157 61.1283L69.805 90L90.7358 47.601L133 5H125.956Z"
        fill="#0067FF" />
    <path
        d="M163.659 19.0004L189.214 69.4172L183.356 80.9973L152 19.0004H163.659ZM198.385 19.1333L208.775 29.3202V70.5061L198.385 80.8667V19.1333ZM264.703 50.1804C268.316 53.6934 270.123 57.9518 270.125 62.9527C270.125 67.8978 268.318 72.1539 264.703 75.7285C261.146 79.2435 256.841 80.9989 251.78 80.9989V70.6361C252.863 70.6361 253.889 70.4425 254.852 70.0535C255.815 69.6684 256.659 69.1322 257.382 68.447C258.106 67.7618 258.66 66.9412 259.054 65.9888C259.443 65.0365 259.641 64.0242 259.641 62.9521C259.641 60.8694 258.858 59.0538 257.291 57.5034C255.786 55.9551 253.949 55.1807 251.78 55.1807H236.148C231.087 55.1807 226.778 53.4233 223.227 49.9103C219.669 46.3973 217.893 42.1102 217.893 37.0469C217.893 32.1035 219.671 27.8766 223.227 24.3614C226.722 20.7884 231.029 19 236.148 19V29.3646C235.065 29.3646 234.04 29.5561 233.076 29.9452C232.113 30.3342 231.269 30.8839 230.547 31.5981C229.824 32.3123 229.266 33.1484 228.875 34.1006C228.483 35.0528 228.287 36.0361 228.287 37.0463C228.287 39.1909 229.039 41.0374 230.547 42.5857C232.05 44.1341 233.918 44.9064 236.148 44.9064H251.78C256.841 44.9064 261.148 46.6674 264.703 50.1804ZM279.329 19.1333L289.72 29.3202V70.5061L279.329 80.8667V19.1333ZM352.331 28.1139C358.536 34.1896 361.639 41.4867 361.64 50.0006C361.64 58.6368 358.537 65.9339 352.333 71.8873C346.246 77.963 338.869 81 330.194 81C321.519 81 314.137 77.9613 308.054 71.8873C301.908 65.8719 298.836 58.5766 298.836 50.0006C298.836 41.4845 301.908 34.1896 308.054 28.1139C314.078 22.0382 321.458 19.0013 330.194 19.0013C338.867 19.0013 346.246 22.04 352.331 28.1139ZM344.922 64.6496C349.018 60.5406 351.066 55.6592 351.066 49.9998C351.066 44.3443 349.018 39.4922 344.922 35.4411C340.827 31.39 335.916 29.3656 330.194 29.3656C324.472 29.3656 319.531 31.3901 315.375 35.4411C311.338 39.4902 309.319 44.3421 309.319 49.9998C309.319 55.6574 311.337 60.541 315.375 64.6496C319.531 68.6407 324.469 70.6363 330.194 70.6363C335.915 70.6363 340.825 68.6408 344.922 64.6496ZM412.533 19.0004H423V80.9995L370.845 34.6723V19.0006L412.534 56.1102L412.533 19.0004Z"
        fill="#0067FF" />
</svg>