<svg width="117" height="117" viewBox="0 0 117 117" fill="none" xmlns="http://www.w3.org/2000/svg">
<g clip-path="url(#clip0_394_734)">
<path d="M30.6158 56.1561C31.6811 56.5487 32.8452 56.742 34.0449 56.6851C35.844 56.604 37.5089 55.9726 38.8551 54.9685C40.2034 53.963 41.2445 52.5862 41.8356 50.9859C42.231 49.9192 42.4216 48.7559 42.3656 47.5566C42.2845 45.7575 41.6528 44.0919 40.6487 42.7464C39.6437 41.3995 38.2649 40.3568 36.6655 39.7638C35.6001 39.3712 34.4359 39.1792 33.2377 39.2348C31.4377 39.3172 29.773 39.9473 28.4261 40.9516C27.0792 41.9584 26.0372 43.3355 25.4456 44.9355C25.0503 46.0009 24.8594 47.1658 24.9157 48.3633C24.9975 50.164 25.6282 51.828 26.6332 53.1751C27.6375 54.5204 29.0171 55.5645 30.6158 56.1561ZM29.0342 45.1586C29.5753 44.2712 30.3719 43.5443 31.3162 43.0935C31.9457 42.7948 32.6411 42.6097 33.392 42.5757C34.5163 42.5245 35.5533 42.8117 36.4429 43.3551C37.3305 43.8956 38.0565 44.6919 38.5073 45.6366C38.8083 46.2653 38.9918 46.9593 39.0258 47.7118C39.077 48.8368 38.7891 49.8724 38.2477 50.7627C37.7057 51.6516 36.9095 52.3755 35.9649 52.828C35.3355 53.128 34.6408 53.3115 33.8904 53.3456C32.7647 53.3968 31.7277 53.1068 30.8374 52.5677C29.9506 52.0243 29.2246 51.2293 28.7737 50.2849C28.473 49.656 28.2895 48.9606 28.2554 48.2111C28.2049 47.0845 28.4931 46.0477 29.0342 45.1586Z" fill="#0067FF"/>
<path d="M68.0663 92.4149C68.2414 96.2026 71.455 99.1326 75.2449 98.9562C79.0326 98.7827 81.9624 95.5682 81.7869 91.7792C81.6118 87.99 78.398 85.0602 74.6097 85.2366C70.8206 85.4114 67.8906 88.6245 68.0663 92.4149Z" fill="#0067FF"/>
<path d="M54.9567 89.6145C51.5579 89.7724 48.9296 92.6556 49.0868 96.0548C49.244 99.454 52.1276 102.083 55.5264 101.925C58.9248 101.767 61.5534 98.8838 61.3962 95.4858C61.239 92.0864 58.3551 89.4582 54.9567 89.6145Z" fill="#0067FF"/>
<path d="M36.3015 92.8461C39.3289 92.7067 41.6693 90.1394 41.5292 87.1113C41.3894 84.0846 38.822 81.7435 35.7944 81.8845C32.7664 82.0252 30.4266 84.5924 30.566 87.6193C30.7063 90.6474 33.2734 92.9871 36.3015 92.8461Z" fill="#0067FF"/>
<path d="M22.9239 71.9608C23.0333 74.3289 25.0411 76.1579 27.4099 76.0485C29.7766 75.9404 31.6093 73.9322 31.4998 71.5641C31.3904 69.196 29.3806 67.3667 27.0132 67.475C24.6448 67.5856 22.8142 69.5911 22.9239 71.9608Z" fill="#0067FF"/>
<path d="M64.3868 59.3846L64.3411 59.2425L57.3142 54.2869L57.1664 54.2912C53.629 54.3694 49.8978 56.5882 47.4307 60.0884C45.0909 63.4081 43.9694 66.8374 42.8842 70.1543C42.1438 72.4157 41.3787 74.7568 40.2281 77.061C39.2759 78.9698 38.7071 79.6811 38.7055 79.6839L38.123 80.3751L38.7659 80.6468C41.7555 81.9085 46.0432 81.5657 50.5278 79.7124C55.2391 77.7666 59.3846 74.4924 62.1992 70.5014C64.6676 67.001 65.5047 62.7426 64.3868 59.3846ZM58.0873 71.8897C57.9584 71.9934 57.822 72.1058 57.6812 72.2338C56.1088 73.6476 54.3223 73.3659 55.7512 70.7318C57.1826 68.0977 55.2953 67.5657 53.482 69.4132C51.2079 71.7301 50.4567 70.2224 50.9695 69.0405C51.4809 67.8614 53.014 66.1388 52.0113 65.2929C51.4069 64.7837 50.4261 65.7764 48.8857 67.1516C48.0041 67.9409 46.1933 67.9638 47.3069 64.8404C47.8468 63.6626 48.481 62.5137 49.2739 61.3871C50.9944 58.9452 53.6114 57.2937 56.1125 57.0661L62.1304 61.3073C62.7575 63.7396 62.0799 66.7576 60.3576 69.2025C59.6945 70.1385 58.9315 71.0405 58.0873 71.8897Z" fill="#0067FF"/>
<path d="M61.387 52.5318L64.6285 54.8146C65.6248 55.5203 67.0167 55.5729 68.4723 54.9668C69.928 54.3581 71.3233 53.1421 72.331 51.6031L76.8952 44.6297L66.8622 37.5537L61.8273 44.1957C60.7142 45.6621 60.0394 47.3847 59.9553 48.9605C59.8715 50.5364 60.3904 51.8277 61.387 52.5318Z" fill="#0067FF"/>
<path d="M100.039 8.07015C101.929 5.18286 101.942 1.88583 100.073 0.566157L100.048 0.551989C98.1782 -0.766546 95.0784 0.352723 92.9939 3.10359L68.6528 35.1938L78.516 42.1475L100.039 8.07015Z" fill="#0067FF"/>
<path d="M111.167 61.8609L111.146 61.3559C110.974 57.6267 110.28 54.3155 109.084 51.5135C107.964 48.8824 106.413 46.7133 104.473 45.0648C103.272 44.0408 101.934 43.2328 100.497 42.6654C98.8955 42.0337 97.2139 41.7125 95.4984 41.7125C95.2923 41.7125 95.0889 41.7168 94.8839 41.7266C93.2418 41.8034 91.671 42.1718 90.2153 42.823C88.7183 43.4972 87.4432 44.4245 86.4261 45.581C84.2769 48.0259 81.3791 49.7781 78.1596 50.6771L75.9868 53.9954C75.3362 54.9897 74.5597 55.8658 73.7204 56.6425C73.9302 56.6368 74.14 56.6368 74.3511 56.627C80.5836 56.3381 86.4323 53.5845 90.397 49.0729C90.9014 48.4998 91.5876 48.0062 92.3812 47.6479C93.219 47.2725 94.1682 47.0519 95.1298 47.0094L95.4995 47.0024C96.7029 47.0024 97.8743 47.2597 98.9821 47.7674C100.357 48.4018 101.565 49.3931 102.574 50.716C103.347 51.7315 103.994 52.9333 104.5 54.2888C105.277 56.3656 105.736 58.8246 105.865 61.6009L105.883 62.0647C106.195 71.5957 103.765 80.899 98.8558 88.9665C94.0441 96.8645 87.1487 103.133 78.9141 107.091C73.2227 109.826 67.096 111.365 60.7042 111.662C59.9587 111.696 59.217 111.713 58.4796 111.713C49.7827 111.713 41.2646 109.322 33.8465 104.797C25.9597 99.9851 19.6909 93.0526 15.717 84.7463C12.9775 79.0256 11.4387 72.8786 11.1421 66.4794C10.6636 56.0683 13.5742 46.0364 19.5592 37.4671C25.3075 29.2405 33.7427 22.8087 43.3098 19.3568C43.8381 19.1662 44.4846 19.0467 45.1276 19.0197C45.2455 19.014 45.365 19.011 45.4852 19.011C46.2355 19.011 46.9937 19.1221 47.6756 19.3325C48.5033 19.583 49.2402 19.9811 49.8076 20.4845C50.2039 20.8373 50.5217 21.237 50.7806 21.7077C51.1696 22.4289 51.3823 23.2623 51.4314 24.258C51.4639 24.9719 51.4065 25.7527 51.2585 26.5792C51.1655 27.1126 51.0496 27.6715 50.9184 28.3032C50.7918 28.9133 50.6588 29.555 50.538 30.2318C50.3359 31.3753 50.1141 32.9045 50.1924 34.6042C50.4059 39.2324 51.976 43.6345 54.734 47.3339C55.0205 47.7178 55.3228 48.0862 55.6307 48.4505C55.795 46.3655 56.5721 44.246 57.8308 42.3432C57.6183 41.9704 57.3793 41.6149 57.1937 41.2253C56.164 39.0747 55.5859 36.7635 55.4741 34.3597C55.4314 33.4466 55.5175 32.4297 55.7458 31.1566C55.8432 30.5991 55.9627 30.0202 56.1035 29.3445C56.225 28.7572 56.3516 28.1427 56.4661 27.5027C56.6809 26.2936 56.7641 25.1204 56.7129 24.0109C56.627 22.0368 56.0801 20.192 55.1307 18.676C54.2717 17.2921 53.0407 16.1187 51.572 15.2837C50.7045 14.786 49.7493 14.4005 48.7336 14.1361C47.6769 13.863 46.5776 13.7236 45.4658 13.7236C45.2709 13.7236 45.0769 13.728 44.8854 13.7364C43.6829 13.7949 42.5486 14.0125 41.5146 14.3852C30.78 18.2569 21.6895 25.1908 15.2248 34.4372C8.55987 43.964 5.3218 55.1291 5.86018 66.7253C6.34601 77.2731 9.92593 87.3105 16.214 95.7518C22.3499 103.981 30.6656 110.207 40.2605 113.753C46.0933 115.908 52.2201 117 58.4697 117C59.2924 117 60.1182 116.981 60.9487 116.942C68.0525 116.613 74.8682 114.902 81.2052 111.855C87.3148 108.92 92.7402 104.863 97.3309 99.7984C106.716 89.4553 111.63 75.9816 111.167 61.8609Z" fill="#0067FF"/>
<path d="M90.9444 67.6967V73.3332C90.9444 75.9107 92.984 78 95.5 78C98.016 78 100.056 75.9107 100.056 73.3332V67.6967M95.5 36V38.3334M109.996 42.1502L108.386 43.8002M81.0036 42.1502L82.6143 43.8002M77.2778 57.0005H75M116 57.0005H113.722M106.889 57.0005C106.889 63.4439 101.79 68.6674 95.5 68.6674C89.2101 68.6674 84.1111 63.4439 84.1111 57.0005C84.1111 50.557 89.2101 45.3335 95.5 45.3335C101.79 45.3335 106.889 50.557 106.889 57.0005Z" stroke="#3ADB76" stroke-width="4" stroke-linecap="round" stroke-linejoin="round"/>
</g>
<defs>
<clipPath id="clip0_394_734">
<rect width="117" height="117" fill="white"/>
</clipPath>
</defs>
</svg>
