<svg width="119" height="108" viewBox="0 0 119 108" fill="none" xmlns="http://www.w3.org/2000/svg">
<path d="M20.0711 89.3368C20.4029 89.4904 20.7938 89.5781 21.2068 89.5781C22.3241 89.5781 23.2866 88.92 23.718 87.973L23.7254 87.9547L40.2601 51.3484L55.5153 56.522C55.7808 56.6134 56.0869 56.6682 56.4077 56.6682C57.2042 56.6682 57.9196 56.3355 58.4247 55.8053L84.8088 27.9484V37.6411C84.8088 39.1548 86.0478 40.3833 87.5744 40.3833C89.1011 40.3833 90.3401 39.1548 90.3401 37.6411V21.0198L90.329 20.9613L90.3106 20.8772C90.2774 20.1569 89.9676 19.5171 89.4809 19.0491L89.4661 19.0198L89.3997 18.9942C88.9204 18.5555 88.2788 18.2849 87.5744 18.2776H70.8148C69.2881 18.2776 68.0491 19.5061 68.0491 21.0198C68.0491 22.5335 69.2881 23.762 70.8148 23.762H81.1803L55.6112 50.7597L39.6591 45.3521C39.3936 45.2607 39.0912 45.2095 38.7741 45.2095C37.6568 45.2095 36.6906 45.864 36.2481 46.811L36.2408 46.8292L18.6735 85.7171C18.5223 86.0462 18.4301 86.4301 18.4301 86.8359C18.4301 87.9438 19.0939 88.8981 20.0489 89.3295L20.0711 89.3368ZM106.016 102.375H5.53125V2.74219C5.53125 1.2285 4.29225 0 2.76562 0C1.239 0 0 1.2285 0 2.74219V105.117C0 106.631 1.239 107.859 2.76562 107.859H106.016C107.542 107.859 108.781 106.631 108.781 105.117C108.781 103.603 107.542 102.375 106.016 102.375Z" fill="#0067FF"/>
<path d="M102.667 44H79.3333C77.4924 44 76 45.4426 76 47.2222V69.7778C76 71.5574 77.4924 73 79.3333 73H102.667C104.508 73 106 71.5574 106 69.7778V47.2222C106 45.4426 104.508 44 102.667 44Z" stroke="#3ADB76" stroke-width="4" stroke-linecap="round" stroke-linejoin="round"/>
<path d="M83 60.2857L87.8 65L99 54" stroke="#3ADB76" stroke-width="4" stroke-linecap="round" stroke-linejoin="round"/>
</svg>
