<svg width="117" height="117" viewBox="0 0 117 117" fill="none" xmlns="http://www.w3.org/2000/svg">
<g clip-path="url(#clip0_394_729)">
<path d="M58.5 61.2025C73.1752 61.2025 85.072 47.2777 85.072 30.1013C85.072 6.28145 73.1755 -1 58.5 -1C43.8245 -1 31.928 6.28145 31.928 30.1013C31.928 47.2777 43.8247 61.2025 58.5 61.2025Z" fill="#0067FF"/>
<path d="M115.952 108.462L102.546 78.2627C102.053 77.1522 101.198 76.2428 100.121 75.6819L78.7736 64.5699C77.4842 63.8985 75.979 63.7797 74.6006 64.2398C73.2223 64.6996 72.09 65.6989 71.4618 67.0092L62.3904 85.9405L63.5329 75.6427C63.5685 75.3207 63.4862 74.996 63.301 74.7298L59.601 69.4107C59.5881 69.3925 59.5731 69.3756 59.5597 69.3584L62.7596 66.929C63.0353 66.7196 63.1975 66.3933 63.1975 66.0467C63.1975 64.7506 62.1424 63.6956 60.8461 63.6956H56.1546C54.8583 63.6956 53.8035 64.7506 53.8035 66.0467C53.8035 66.3933 53.9655 66.7196 54.2414 66.929L57.4411 69.3584C57.4274 69.3756 57.4126 69.3925 57.3998 69.4107L53.6998 74.7298C53.5145 74.996 53.4319 75.3207 53.4679 75.6427L54.61 85.9405L45.5387 67.0092C44.9107 65.6989 43.7782 64.6996 42.3998 64.2398C41.0217 63.7797 39.5157 63.8991 38.2269 64.5699L16.8796 75.6819C15.8024 76.2428 14.9473 77.1522 14.4545 78.2627L1.04883 108.462C0.312592 110.121 0.465149 112.039 1.45422 113.561C2.4433 115.082 4.1351 116 5.94996 116H111.051C112.866 116 114.557 115.082 115.547 113.561C116.536 112.039 116.688 110.121 115.952 108.462Z" fill="#0067FF"/>
<path d="M102.232 47.0884L93.5199 45.9897L89.7827 38.0435L86.0456 45.9897L77.3335 47.0884L83.736 53.0981L82.0886 61.7234L89.7827 57.4914L97.4767 61.7233L95.8295 53.0981L102.232 47.0884ZM89.7828 54.4148L85.812 56.5989L86.6621 52.1474L83.3577 49.0458L87.854 48.4787L89.7827 44.3776L91.7115 48.4786L96.2078 49.0457L92.9036 52.1474L93.7537 56.5988L89.7828 54.4148Z" fill="#3ADB76"/>
<path d="M104.922 66.1605L104.187 59.9956L99.9072 64.493L93.817 63.2864L96.7717 68.7468L93.7422 74.166L99.8484 73.0433L104.066 77.5992L104.885 71.4449L110.522 68.8413L104.922 66.1605ZM102.409 69.6194L102.15 71.5616L100.819 70.1239L98.8922 70.4782L99.8484 68.7681L98.9159 67.0448L100.838 67.4257L102.189 66.0063L102.42 67.9519L104.188 68.798L102.409 69.6194Z" fill="#3ADB76"/>
<path d="M82.7934 68.7468L85.748 63.2865L79.6579 64.4931L75.3778 59.9956L74.6434 66.1606L69.0435 68.8415L74.6798 71.445L75.4989 77.5993L79.7166 73.0433L85.8229 74.1661L82.7934 68.7468ZM78.7459 70.124L77.4149 71.5617L77.1564 69.6195L75.3777 68.7979L77.145 67.9518L77.3768 66.0063L78.7275 67.4256L80.6494 67.0448L79.717 68.768L80.6731 70.4782L78.7459 70.124Z" fill="#3ADB76"/>
<path d="M91.1306 73.5197V71.4792H88.4348V73.5197H86.3943V76.2155H88.4348V78.256H91.1306V76.2155H93.1712V73.5197H91.1306Z" fill="#3ADB76"/>
<path d="M75.1997 43.9015V41.8608H72.504V43.9015H70.4634V46.5972H72.504V48.6378H75.1997V46.5972H77.2403V43.9015H75.1997Z" fill="#3ADB76"/>
<path d="M107.062 52.4281V50.3875H104.366V52.4281H102.325V55.1238H104.366V57.1644H107.062V55.1238H109.102V52.4281H107.062Z" fill="#3ADB76"/>
</g>
<defs>
<clipPath id="clip0_394_729">
<rect width="117" height="117" fill="white"/>
</clipPath>
</defs>
</svg>
