<svg fill="#0067FF" width="100" height="79" viewBox="0 0 100 79" xmlns="http://www.w3.org/2000/svg">
    <path
        d="M28.135 0.153809C27.6273 0.153851 27.1257 0.264333 26.665 0.477591C26.2043 0.690848 25.7955 1.00178 25.4669 1.38881L0.831951 30.4038C0.399295 30.9131 0.121488 31.5356 0.0313656 32.1978C-0.0587573 32.86 0.0425709 33.5341 0.323374 34.1405C0.604178 34.7469 1.05272 35.2602 1.61598 35.6199C2.17924 35.9795 2.83368 36.1703 3.50195 36.1698L96.502 36.1048C97.1697 36.1044 97.8234 35.9129 98.3859 35.5531C98.9483 35.1932 99.3961 34.68 99.6764 34.0739C99.9567 33.4678 100.058 32.7942 99.9677 32.1326C99.8776 31.4709 99.6001 30.8489 99.168 30.3398L74.59 1.38881C74.2614 1.00178 73.8526 0.690848 73.3919 0.477591C72.9312 0.264333 72.4296 0.153851 71.922 0.153809H28.135ZM89.91 41.1098L80.732 41.1178L88.943 50.7878L11.068 50.8408L19.288 41.1588L10.1 41.1668L0.831951 52.0798C0.399295 52.5891 0.121488 53.2116 0.0313656 53.8738C-0.0587573 54.536 0.0425709 55.2101 0.323374 55.8165C0.604178 56.4229 1.05272 56.9362 1.61598 57.2959C2.17924 57.6555 2.83368 57.8463 3.50195 57.8458L96.502 57.7808C97.1697 57.7804 97.8234 57.5889 98.3859 57.2291C98.9483 56.8692 99.3961 56.356 99.6764 55.7499C99.9567 55.1438 100.058 54.4702 99.9677 53.8086C99.8776 53.1469 99.6001 52.5249 99.168 52.0158L89.91 41.1098Z"
        fill="inherit" />
    <path
        d="M80.732 62.1179L89.91 62.1099L99.168 73.0159C99.6001 73.5249 99.8776 74.147 99.9677 74.8086C100.058 75.4703 99.9567 76.1439 99.6764 76.7499C99.3961 77.356 98.9483 77.8693 98.3859 78.2291C97.8234 78.589 97.1697 78.7804 96.502 78.7809L3.50195 78.8459C2.83368 78.8464 2.17924 78.6555 1.61598 78.2959C1.05272 77.9363 0.604178 77.423 0.323374 76.8166C0.0425709 76.2101 -0.0587573 75.536 0.0313656 74.8739C0.121488 74.2117 0.399295 73.5892 0.831951 73.0799L10.1 62.1669L19.288 62.1589L11.068 71.8409L88.943 71.7879L80.732 62.1179Z"
        fill="inherit" />
</svg>