<svg width="32" height="32" viewBox="0 0 32 32" fill="none" xmlns="http://www.w3.org/2000/svg">
    <path
        d="M0 16C0 7.16344 7.16344 0 16 0V0C24.8366 0 32 7.16344 32 16V29C32 30.6569 30.6569 32 29 32H3C1.34315 32 0 30.6569 0 29V16Z"
        fill="#AFC1D1" />
    <path
        d="M5.86239 25.0005V11.9096H8.63015V22.7185H14.2424V25.0005H5.86239ZM15.9986 25.0005V23.0062L20.6584 18.6915C21.0547 18.308 21.3871 17.9628 21.6555 17.656C21.9283 17.3492 22.1349 17.0488 22.2756 16.7547C22.4162 16.4565 22.4865 16.1347 22.4865 15.7896C22.4865 15.406 22.3991 15.0758 22.2244 14.7988C22.0497 14.5175 21.8111 14.3023 21.5085 14.1532C21.206 13.9998 20.8629 13.9231 20.4794 13.9231C20.0788 13.9231 19.7294 14.004 19.4311 14.166C19.1328 14.3279 18.9027 14.5601 18.7408 14.8627C18.5788 15.1653 18.4979 15.5253 18.4979 15.943H15.8707C15.8707 15.0864 16.0646 14.3428 16.4524 13.7121C16.8402 13.0815 17.3835 12.5935 18.0824 12.2484C18.7813 11.9032 19.5866 11.7306 20.4986 11.7306C21.4361 11.7306 22.2521 11.8968 22.9467 12.2292C23.6456 12.5573 24.1889 13.0133 24.5767 13.5971C24.9645 14.1809 25.1584 14.8499 25.1584 15.6042C25.1584 16.0985 25.0604 16.5864 24.8643 17.068C24.6726 17.5495 24.3295 18.0843 23.8352 18.6724C23.3409 19.2562 22.6442 19.9572 21.745 20.7753L19.8338 22.6482V22.7377H25.331V25.0005H15.9986Z"
        fill="#1C1F2A" />
</svg>