<svg width="36" height="29" viewBox="0 0 36 29" fill="none" xmlns="http://www.w3.org/2000/svg">
    <path fill-rule="evenodd" clip-rule="evenodd"
        d="M18 8L23 0H13L18 8ZM0 17C0 13.134 3.13401 10 7 10H29C32.866 10 36 13.134 36 17H26V29H9V17H0Z"
        fill="#AFC1D1" />
    <path
        d="M9.86594 24V15.2727H13.3091C13.9682 15.2727 14.5307 15.3906 14.9966 15.6264C15.4654 15.8594 15.8219 16.1903 16.0662 16.6193C16.3134 17.0455 16.437 17.5469 16.437 18.1236C16.437 18.7031 16.312 19.2017 16.062 19.6193C15.812 20.0341 15.4498 20.3523 14.9753 20.5739C14.5037 20.7955 13.9327 20.9062 13.2623 20.9062H10.9569V19.4233H12.964C13.3162 19.4233 13.6088 19.375 13.8418 19.2784C14.0748 19.1818 14.248 19.0369 14.3617 18.8438C14.4782 18.6506 14.5364 18.4105 14.5364 18.1236C14.5364 17.8338 14.4782 17.5895 14.3617 17.3906C14.248 17.1918 14.0733 17.0412 13.8375 16.9389C13.6046 16.8338 13.3105 16.7812 12.9554 16.7812H11.7111V24H9.86594ZM14.579 20.0284L16.748 24H14.7111L12.589 20.0284H14.579ZM20.9157 24.1193C20.2793 24.1193 19.7125 24.0099 19.2154 23.7912C18.7211 23.5696 18.3304 23.2656 18.0435 22.8793C17.7594 22.4901 17.6131 22.0412 17.6046 21.5327H19.4625C19.4739 21.7457 19.5435 21.9332 19.6713 22.0952C19.802 22.2543 19.9753 22.3778 20.1912 22.4659C20.4071 22.554 20.65 22.598 20.9199 22.598C21.2012 22.598 21.4498 22.5483 21.6657 22.4489C21.8816 22.3494 22.0506 22.2116 22.1728 22.0355C22.2949 21.8594 22.356 21.6562 22.356 21.4261C22.356 21.1932 22.2907 20.9872 22.16 20.8082C22.0321 20.6264 21.8475 20.4844 21.606 20.3821C21.3674 20.2798 21.0833 20.2287 20.7537 20.2287H19.9398V18.8736H20.7537C21.0321 18.8736 21.2779 18.8253 21.4909 18.7287C21.7069 18.6321 21.8745 18.4986 21.9938 18.3281C22.1131 18.1548 22.1728 17.9531 22.1728 17.723C22.1728 17.5043 22.1202 17.3125 22.0151 17.1477C21.9128 16.9801 21.7679 16.8494 21.5804 16.7557C21.3958 16.6619 21.1799 16.6151 20.9327 16.6151C20.6827 16.6151 20.454 16.6605 20.2466 16.7514C20.0392 16.8395 19.873 16.9659 19.748 17.1307C19.623 17.2955 19.5563 17.4886 19.5478 17.7102H17.7793C17.7878 17.2074 17.9313 16.7642 18.2097 16.3807C18.4881 15.9972 18.8631 15.6974 19.3347 15.4815C19.8091 15.2628 20.3446 15.1534 20.9412 15.1534C21.5435 15.1534 22.0705 15.2628 22.5222 15.4815C22.9739 15.7003 23.3248 15.9957 23.5748 16.3679C23.8276 16.7372 23.9526 17.152 23.9498 17.6122C23.9526 18.1009 23.8006 18.5085 23.4938 18.8352C23.1898 19.1619 22.7935 19.3693 22.3049 19.4574V19.5256C22.9469 19.608 23.4355 19.831 23.7708 20.1946C24.1088 20.5554 24.2765 21.0071 24.2736 21.5497C24.2765 22.0469 24.133 22.4886 23.8432 22.875C23.5563 23.2614 23.16 23.5653 22.6543 23.7869C22.1486 24.0085 21.5691 24.1193 20.9157 24.1193Z"
        fill="#1C1F2A" />
</svg>