<svg width="32" height="32" viewBox="0 0 32 32" fill="none" xmlns="http://www.w3.org/2000/svg">
    <circle cx="16" cy="16" r="12" fill="#AFC1D1" />
    <path
        d="M12.1378 23V9.90909H17.3026C18.2912 9.90909 19.1349 10.0859 19.8338 10.4396C20.5369 10.7891 21.0717 11.2855 21.4382 11.929C21.8089 12.5682 21.9943 13.3203 21.9943 14.1854C21.9943 15.0547 21.8068 15.8026 21.4318 16.429C21.0568 17.0511 20.5135 17.5284 19.8018 17.8608C19.0945 18.1932 18.2379 18.3594 17.2322 18.3594H13.7741V16.1349H16.7848C17.3132 16.1349 17.7521 16.0625 18.1016 15.9176C18.451 15.7727 18.7109 15.5554 18.8814 15.2656C19.0561 14.9759 19.1435 14.6158 19.1435 14.1854C19.1435 13.7507 19.0561 13.3842 18.8814 13.0859C18.7109 12.7876 18.4489 12.5618 18.0952 12.4084C17.7457 12.2507 17.3047 12.1719 16.772 12.1719H14.9055V23H12.1378ZM19.2074 17.0426L22.4609 23H19.4055L16.2223 17.0426H19.2074Z"
        fill="#1C1F2A" />
    <circle cx="16" cy="16" r="15.5" stroke="#AFC1D1" />
</svg>