<svg width="32" height="32" viewBox="0 0 32 32" fill="none" xmlns="http://www.w3.org/2000/svg">
    <path
        d="M0 16C0 7.16344 7.16344 0 16 0V0C24.8366 0 32 7.16344 32 16V29C32 30.6569 30.6569 32 29 32H3C1.34315 32 0 30.6569 0 29V16Z"
        fill="#AFC1D1" />
    <path
        d="M5.06259 25.0005V11.9096H10.2274C11.216 11.9096 12.0597 12.0864 12.7586 12.4401C13.4617 12.7896 13.9965 13.286 14.363 13.9295C14.7338 14.5687 14.9191 15.3208 14.9191 16.1859C14.9191 17.0552 14.7316 17.803 14.3566 18.4295C13.9816 19.0516 13.4383 19.5289 12.7267 19.8613C12.0193 20.1937 11.1627 20.3599 10.157 20.3599H6.69895V18.1354H9.70961C10.238 18.1354 10.6769 18.063 11.0264 17.9181C11.3758 17.7732 11.6357 17.5559 11.8062 17.2661C11.9809 16.9763 12.0683 16.6163 12.0683 16.1859C12.0683 15.7512 11.9809 15.3847 11.8062 15.0864C11.6357 14.7881 11.3737 14.5623 11.02 14.4089C10.6705 14.2512 10.2295 14.1724 9.69682 14.1724H7.83034V25.0005H5.06259ZM12.1322 19.0431L15.3857 25.0005H12.3303L9.14711 19.0431H12.1322ZM16.7984 25.0005V23.0062L21.4582 18.6915C21.8545 18.308 22.1869 17.9628 22.4553 17.656C22.7281 17.3492 22.9347 17.0488 23.0754 16.7547C23.216 16.4565 23.2863 16.1347 23.2863 15.7896C23.2863 15.406 23.199 15.0758 23.0242 14.7988C22.8495 14.5175 22.6109 14.3023 22.3083 14.1532C22.0058 13.9998 21.6627 13.9231 21.2792 13.9231C20.8786 13.9231 20.5292 14.004 20.2309 14.166C19.9326 14.3279 19.7025 14.5601 19.5406 14.8627C19.3786 15.1653 19.2977 15.5253 19.2977 15.943H16.6705C16.6705 15.0864 16.8644 14.3428 17.2522 13.7121C17.64 13.0815 18.1833 12.5935 18.8822 12.2484C19.5811 11.9032 20.3865 11.7306 21.2984 11.7306C22.2359 11.7306 23.0519 11.8968 23.7465 12.2292C24.4454 12.5573 24.9887 13.0133 25.3765 13.5971C25.7643 14.1809 25.9582 14.8499 25.9582 15.6042C25.9582 16.0985 25.8602 16.5864 25.6642 17.068C25.4724 17.5495 25.1294 18.0843 24.635 18.6724C24.1407 19.2562 23.444 19.9572 22.5448 20.7753L20.6336 22.6482V22.7377H26.1308V25.0005H16.7984Z"
        fill="#1C1F2A" />
</svg>