<svg width="32" height="22" viewBox="0 0 32 22" fill="none" xmlns="http://www.w3.org/2000/svg">
    <path
        d="M0 2C0 0.895431 0.895431 0 2 0H30C31.1046 0 32 0.895431 32 2V12V12C32 17.5228 27.5228 22 22 22H10C4.47715 22 0 17.5228 0 12V12V2Z"
        fill="#AFC1D1" />
    <path
        d="M9.01136 16V4.36364H13.6023C14.4811 4.36364 15.2311 4.52083 15.8523 4.83523C16.4773 5.14583 16.9527 5.58712 17.2784 6.15909C17.608 6.72727 17.7727 7.39583 17.7727 8.16477C17.7727 8.9375 17.6061 9.60227 17.2727 10.1591C16.9394 10.7121 16.4564 11.1364 15.8239 11.4318C15.1951 11.7273 14.4337 11.875 13.5398 11.875H10.4659V9.89773H13.142C13.6117 9.89773 14.0019 9.83333 14.3125 9.70455C14.6231 9.57576 14.8542 9.38258 15.0057 9.125C15.161 8.86742 15.2386 8.54735 15.2386 8.16477C15.2386 7.77841 15.161 7.45265 15.0057 7.1875C14.8542 6.92235 14.6212 6.72159 14.3068 6.58523C13.9962 6.44508 13.6042 6.375 13.1307 6.375H11.4716V16H9.01136ZM15.2955 10.7045L18.1875 16H15.4716L12.642 10.7045H15.2955ZM24.5057 4.36364V16H22.0455V6.69886H21.9773L19.3125 8.36932V6.1875L22.1932 4.36364H24.5057Z"
        fill="#1C1F2A" />
</svg>