<svg width="32" height="32" viewBox="0 0 32 32" fill="none" xmlns="http://www.w3.org/2000/svg">
    <path
        d="M19.5 26.8824C19.5 27.1617 19.3928 27.2907 19.2836 27.3676C19.1483 27.4629 18.9698 27.5 18.8571 27.5H13.1429C13.0302 27.5 12.8517 27.4629 12.7164 27.3676C12.6072 27.2907 12.5 27.1617 12.5 26.8824V22.6221L16 19.1994L19.5 22.6221V26.8824Z"
        stroke="#AFC1D1" />
    <path
        d="M19.5 5.11765C19.5 4.8383 19.3928 4.70929 19.2836 4.63235C19.1483 4.53709 18.9698 4.5 18.8571 4.5H13.1429C13.0302 4.5 12.8517 4.53709 12.7164 4.63235C12.6072 4.70929 12.5 4.8383 12.5 5.11765V9.37785L16 12.8006L19.5 9.37785V5.11765Z"
        fill="#AFC1D1" stroke="#AFC1D1" />
    <path
        d="M5.11765 19.5C4.8383 19.5 4.70929 19.3928 4.63235 19.2836C4.53709 19.1483 4.5 18.9698 4.5 18.8571L4.5 13.1429C4.5 13.0302 4.53709 12.8517 4.63235 12.7164C4.70929 12.6072 4.8383 12.5 5.11765 12.5L9.37785 12.5L12.8006 16L9.37785 19.5L5.11765 19.5Z"
        stroke="#AFC1D1" />
    <path
        d="M26.8824 19.5C27.1617 19.5 27.2907 19.3928 27.3676 19.2836C27.4629 19.1483 27.5 18.9698 27.5 18.8571L27.5 13.1429C27.5 13.0302 27.4629 12.8517 27.3676 12.7164C27.2907 12.6072 27.1617 12.5 26.8824 12.5L22.6221 12.5L19.1994 16L22.6221 19.5L26.8824 19.5Z"
        stroke="#AFC1D1" />
</svg>