<svg width="36" height="29" viewBox="0 0 36 29" fill="none" xmlns="http://www.w3.org/2000/svg">
    <path fill-rule="evenodd" clip-rule="evenodd"
        d="M18 8L23 0H13L18 8ZM0 17C0 13.134 3.13401 10 7 10H29C32.866 10 36 13.134 36 17H26V29H9V17H0Z"
        fill="#AFC1D1" />
    <path
        d="M10.8991 24H16.4858V22.4787H12.7443V15.2727H10.8991V24ZM20.8825 24.1193C22.8427 24.1193 24.2447 23.0412 24.2404 21.5497C24.2447 20.4631 23.5543 19.6875 22.2717 19.5256V19.4574C23.2475 19.2827 23.9208 18.5923 23.9165 17.6122C23.9208 16.2358 22.7148 15.1534 20.908 15.1534C19.1183 15.1534 17.7717 16.2017 17.7461 17.7102H19.5146C19.5359 17.0455 20.1452 16.6151 20.8995 16.6151C21.6452 16.6151 22.1438 17.0668 22.1396 17.723C22.1438 18.4091 21.56 18.8736 20.7205 18.8736H19.9066V20.2287H20.7205C21.7092 20.2287 22.3271 20.723 22.3228 21.4261C22.3271 22.1207 21.7305 22.598 20.8867 22.598C20.0728 22.598 19.4634 22.1719 19.4293 21.5327H17.5714C17.6012 23.0582 18.9648 24.1193 20.8825 24.1193Z"
        fill="#1C1F2A" />
</svg>