<svg width="108" height="33" viewBox="0 0 108 33" fill="none" xmlns="http://www.w3.org/2000/svg">
<path d="M16.123 32.5014V27.1189H21.5288V32.5014H16.123ZM17.1325 28.1286V31.4918H20.5189V28.1286H17.1325ZM8.73895 16.3063H26.9341V21.712H0L10.8013 0.15918H16.8128L8.73895 16.3063ZM1.63552 20.7023H25.9234V17.3159H7.10458L7.83558 15.8549L15.1788 1.16983H11.4239L1.63552 20.7023ZM61.9626 7.99235C64.2324 10.2621 65.4076 13.0579 65.454 16.304C65.4066 19.5793 64.2313 22.3762 61.9626 24.6446C59.692 26.9153 56.9041 28.0795 53.6774 28.1037H53.6622C53.4855 28.1017 53.3129 28.0906 53.1402 28.0795L52.9746 28.0694L52.6444 28.0502L52.389 27.8392L52.3072 27.7746C52.2022 27.6928 52.0982 27.609 52.0013 27.5121C51.0411 26.5519 50.5533 25.3473 50.5524 23.9318C50.5252 22.5507 51.0128 21.339 52.0013 20.3506L57.702 14.6498C59.3669 12.9849 60.1756 11.0413 60.1747 8.70787C60.1747 8.70787 60.1717 8.67958 60.1717 8.6503L60.1555 6.22104L61.8881 7.92332C61.9073 7.93947 61.9354 7.96511 61.9626 7.99235ZM61.2511 23.9311C63.338 21.8431 64.4032 19.3068 64.4466 16.3199C64.4032 13.3323 63.338 10.7952 61.2511 8.70824C61.2289 8.68604 61.2047 8.66786 61.1825 8.64566C61.1825 8.66687 61.1855 8.68807 61.1855 8.70928C61.1865 11.3011 60.2637 13.5193 58.4181 15.365L52.7173 21.0658C51.9258 21.8563 51.5431 22.8115 51.5643 23.9322C51.5653 25.0742 51.949 26.0303 52.7174 26.7986C52.8173 26.8976 52.9294 26.9743 53.0354 27.0622C53.2464 27.0743 53.4554 27.0925 53.6715 27.0945C56.6378 27.0723 59.1638 26.018 61.2511 23.9311ZM65.072 4.88417C68.2352 8.04745 69.8062 11.8587 69.7822 16.3176C69.8044 20.7762 68.2334 24.5876 65.0701 27.751C64.0776 28.7435 63.0135 29.5603 61.8927 30.2398C59.4665 31.7098 56.7487 32.463 53.7235 32.463H53.6366C53.567 32.4651 53.4963 32.4651 53.4266 32.4651C52.6492 32.4651 51.896 32.4025 51.156 32.3045C47.7474 31.8552 44.7479 30.362 42.1712 27.7854C39.0302 24.6444 37.4712 20.8219 37.4924 16.3187C37.4712 11.858 39.0412 8.04777 42.2045 4.88438C43.2111 3.87673 44.2884 3.05089 45.4202 2.3663C47.8212 0.914427 50.4959 0.171283 53.4592 0.171283C53.5188 0.171283 53.5783 0.171283 53.6379 0.172275C54.5234 0.172275 55.3755 0.252046 56.2085 0.37422C59.5918 0.873008 62.5522 2.36402 65.072 4.88417ZM64.3582 27.0386C67.3508 24.0459 68.7955 20.5413 68.7734 16.3231C68.7946 12.0947 67.3497 8.58997 64.3571 5.59752C62.0207 3.26113 59.2293 1.83952 56.0608 1.37312C55.1874 1.24489 54.3938 1.18231 53.6376 1.18231L53.4589 1.18132C50.7207 1.18132 48.1915 1.87091 45.942 3.23091C44.8415 3.89626 43.8237 4.69295 42.9181 5.59849C39.9265 8.59013 38.4817 12.0958 38.5019 16.3139C38.4817 20.5858 39.9154 24.1016 42.8858 27.0709C45.2737 29.4588 48.1005 30.8835 51.2893 31.3034C52.0668 31.4064 52.7665 31.4559 53.4288 31.4559L53.6236 31.4549H53.7256C56.5244 31.4549 59.097 30.7562 61.3719 29.3781C62.4623 28.7178 63.4666 27.9301 64.3582 27.0386ZM55.3408 12.2879L49.6382 17.9896C47.9764 19.6525 47.1676 21.5961 47.1666 23.9324C47.1696 23.9769 47.1717 24.0142 47.1717 24.0516L47.1828 26.4536L45.4592 24.7807C45.3916 24.7201 45.3512 24.6837 45.3118 24.6443C43.0391 22.3716 41.887 19.571 41.8861 16.3198C41.8861 13.0677 43.0381 10.267 45.3118 7.99295C47.5835 5.72124 50.3935 4.55708 53.6636 4.53387C53.8605 4.5359 54.0392 4.54699 54.2169 4.55913L54.3755 4.56924L54.7076 4.58945L54.9631 4.8025L55.0327 4.857C55.1277 4.93072 55.2216 5.00644 55.3084 5.09328C56.2868 6.07164 56.7967 7.27005 56.8229 8.65539C56.8512 10.0548 56.3525 11.2761 55.3408 12.2879ZM46.1595 23.9306C46.1605 21.3378 47.0812 19.1197 48.9289 17.2739L54.6297 11.5732C55.4425 10.7604 55.8382 9.7942 55.816 8.67452C55.7938 7.55377 55.388 6.59858 54.5964 5.80704C54.5106 5.72023 54.4107 5.65459 54.3178 5.57685C54.1037 5.56372 53.8917 5.54553 53.6736 5.5435C50.6639 5.56471 48.1157 6.61879 46.0287 8.70678C43.9418 10.7928 42.8978 13.3301 42.8978 16.3184C42.8988 19.306 43.9418 21.8422 46.0287 23.9291C46.0732 23.9736 46.1207 24.0109 46.1651 24.0543C46.1641 24.0119 46.1595 23.973 46.1595 23.9306ZM96.4668 32.5014V27.1189H101.873V32.5014H96.4668ZM97.4763 28.1286V31.4918H100.863V28.1286H97.4763ZM89.0827 16.3063H107.278V21.712H80.3438L91.1451 0.15918H97.1566L89.0827 16.3063ZM81.9793 20.7023H106.267V17.3159H87.4483L88.1793 15.8549L95.5225 1.16983H91.7677L81.9793 20.7023Z" fill="#0067FF"/>
</svg>
