<svg width="292" height="32" viewBox="0 0 292 32" fill="none" xmlns="http://www.w3.org/2000/svg">
    <path
        d="M21.529 0.104877H26.935V16.3169L21.529 11.4505V0.104877ZM25.925 14.0507V1.11437H22.539V11.001L25.925 14.0507ZM0 32.4454V0.104604L26.936 24.3579V32.4917L5.36 13.1057V32.4444L0 32.4454ZM1.00999 2.37335V31.435H4.35001V10.842L6.034 12.3556L25.926 30.2273V24.8075L1.00999 2.37335ZM53.685 4.39812C56.9 4.39812 59.695 5.56319 61.993 7.86112C64.292 10.1611 65.457 12.9571 65.457 16.1704C65.457 19.3822 64.294 22.1923 61.999 24.5213C61.448 25.0644 60.862 25.5471 60.248 25.9671C59.626 26.3811 58.972 26.7335 58.297 27.0232C56.875 27.6341 55.33 27.9441 53.708 27.9441C52.084 27.9441 50.541 27.6341 49.118 27.0232C47.699 26.4164 46.44 25.5684 45.376 24.5031C44.312 23.4409 43.458 22.1849 42.836 20.7704C42.601 20.2383 42.411 19.6759 42.254 19.053L42.231 18.958C42.213 18.8823 42.194 18.8066 42.178 18.7299C42.145 18.5845 42.118 18.429 42.092 18.2735L42.091 18.2705L42.083 18.221C42.042 17.9797 42.006 17.7364 41.981 17.489L41.958 17.2528C41.935 16.9771 41.925 16.7015 41.92 16.4239V15.9402C41.98 12.8093 43.124 10.1004 45.323 7.86799C47.662 5.56197 50.472 4.39812 53.685 4.39812ZM61.28 23.8135C63.393 21.6699 64.448 19.1236 64.446 16.1704C64.446 13.2202 63.39 10.6891 61.278 8.57586C59.166 6.46262 56.634 5.40657 53.683 5.40657C50.732 5.40657 48.184 6.46264 46.041 8.57586C44.015 10.6325 42.983 13.089 42.929 15.9394V16.4038C42.934 16.6603 42.942 16.9147 42.963 17.1641C42.97 17.2388 42.977 17.3125 42.985 17.3862C43.009 17.6124 43.043 17.8356 43.079 18.0567C43.107 18.2122 43.133 18.3687 43.166 18.5221C43.186 18.6181 43.212 18.713 43.235 18.8079C43.368 19.341 43.539 19.861 43.761 20.3649C44.335 21.6704 45.112 22.8124 46.091 23.7907C47.069 24.7701 48.211 25.5375 49.517 26.0967C50.82 26.6571 52.218 26.9357 53.708 26.9357C55.197 26.9357 56.596 26.656 57.899 26.0967C58.531 25.8251 59.123 25.503 59.678 25.1345C60.237 24.7538 60.771 24.3152 61.28 23.8135ZM69.367 12.0167C69.724 13.3454 69.921 14.7256 69.922 16.1713C69.922 17.0144 69.837 17.8383 69.709 18.6511C69.265 21.7558 67.964 24.4849 65.805 26.8393C65.588 27.0836 65.378 27.332 65.145 27.5642C64.94 27.7681 64.717 27.9478 64.502 28.1397C63.864 28.7283 63.206 29.2674 62.516 29.7319L65.125 32.3408H42.288L44.88 29.7491C43.963 29.1352 43.091 28.4194 42.267 27.5873C39.704 25.0501 38.197 22.0686 37.706 18.659C37.577 17.8432 37.492 17.0163 37.492 16.1701C37.492 14.8586 37.657 13.6005 37.95 12.3848C38.501 10.0141 39.575 7.85343 41.203 5.91576C41.463 5.60376 41.744 5.30895 42.026 5.01613C42.109 4.93031 42.181 4.83944 42.267 4.75364C45.373 1.58424 49.179 0 53.684 0C57.873 0 61.467 1.40844 64.485 4.18605V4.14567C64.71 4.34153 64.933 4.54146 65.146 4.75248C65.916 5.51475 66.596 6.34769 67.197 7.24526C68.08 8.5285 68.743 9.89871 69.193 11.3536C69.195 11.3617 69.199 11.3687 69.201 11.3758C69.266 11.5859 69.311 11.8037 69.367 12.0167ZM68.711 18.5079C68.848 17.6417 68.913 16.8814 68.912 16.1685C68.912 14.8701 68.737 13.5606 68.392 12.2753L68.331 12.031C68.304 11.9189 68.277 11.8078 68.244 11.6978L68.243 11.6958L68.229 11.6543C67.807 10.2913 67.18 9.001 66.364 7.81663C65.85 7.04933 65.282 6.34259 64.668 5.7064L63.8 4.92796C60.935 2.29172 57.626 1.00941 53.683 1.00941C49.421 1.00941 45.923 2.46532 42.987 5.45996C42.949 5.49831 42.921 5.53161 42.893 5.56391C42.847 5.6154 42.802 5.66588 42.753 5.71637C42.494 5.98496 42.222 6.26865 41.98 6.56046C40.473 8.35364 39.45 10.3881 38.934 12.6123C38.641 13.8199 38.501 14.9811 38.501 16.1694C38.501 16.8832 38.567 17.6455 38.702 18.5007C39.164 21.7074 40.602 24.5184 42.976 26.87C43.74 27.6404 44.567 28.3249 45.441 28.9105L46.462 29.594L45.592 30.4633L44.725 31.3316H62.688L60.935 29.5789L61.953 28.8943C62.557 28.4885 63.167 27.9988 63.818 27.398C63.905 27.3203 63.98 27.2557 64.056 27.19C64.184 27.08 64.312 26.9699 64.433 26.8498C64.598 26.6842 64.752 26.5085 64.906 26.3328L65.05 26.1692C67.07 23.9672 68.298 21.3932 68.711 18.5079ZM78.173 0.249255H105.108V5.65502H94.343V11.0608H88.937V5.65502H78.172L78.173 0.249255ZM104.098 4.64529V1.25887H79.182V4.64529H89.947V10.0511H93.334V4.64529H104.098ZM88.938 32.5898V27.184H94.343V32.5898H88.938ZM89.947 28.1947V31.5801H93.333V28.1947H89.947ZM121.909 0.0713808L128.143 10.8173H137.241V16.2695H121.071V32.4133H115.711V10.8178H121.882L115.711 0.0718434L121.909 0.0713808ZM120.061 15.26H136.23V11.8271H127.56L127.268 11.3243L121.327 1.0815H117.455L122.758 10.3148L123.626 11.8272H116.721V31.4026H120.061V15.26ZM128.108 0.0713808L140.67 0.0481453V5.45287H131.23L128.108 0.0713808ZM139.661 4.44432V1.05997L129.859 1.07815L131.812 4.44437L139.661 4.44432ZM162.835 4.39812C166.05 4.39812 168.845 5.56319 171.143 7.86112C173.442 10.1611 174.608 12.9571 174.608 16.1704C174.608 19.3822 173.444 22.1923 171.149 24.5213C170.598 25.0644 170.013 25.5471 169.398 25.9671C168.776 26.3811 168.122 26.7335 167.447 27.0232C166.025 27.6341 164.481 27.9441 162.858 27.9441C161.235 27.9441 159.691 27.6341 158.268 27.0232C156.849 26.4164 155.59 25.5684 154.526 24.5031C153.462 23.4409 152.608 22.1849 151.986 20.7704C151.751 20.2383 151.561 19.6759 151.405 19.053L151.381 18.958C151.363 18.8823 151.344 18.8066 151.328 18.7299C151.295 18.5845 151.268 18.429 151.242 18.2735L151.241 18.2705L151.233 18.221C151.193 17.9797 151.156 17.7364 151.131 17.489L151.108 17.2528C151.086 16.9771 151.075 16.7015 151.07 16.4239V15.9402C151.13 12.8093 152.274 10.1004 154.473 7.86799C156.812 5.56197 159.622 4.39812 162.835 4.39812ZM170.431 23.8135C172.543 21.6699 173.599 19.1236 173.597 16.1704C173.597 13.2202 172.541 10.6891 170.428 8.57586C168.316 6.46262 165.784 5.40657 162.833 5.40657C159.882 5.40657 157.334 6.46264 155.191 8.57586C153.165 10.6325 152.133 13.089 152.079 15.9394V16.4038C152.084 16.6603 152.092 16.9147 152.113 17.1641C152.12 17.2388 152.127 17.3125 152.136 17.3862C152.159 17.6124 152.193 17.8356 152.229 18.0567C152.257 18.2122 152.283 18.3687 152.316 18.5221C152.337 18.6181 152.362 18.713 152.385 18.8079C152.518 19.341 152.689 19.861 152.911 20.3649C153.486 21.6704 154.262 22.8124 155.241 23.7907C156.22 24.7701 157.362 25.5375 158.667 26.0967C159.971 26.6571 161.368 26.9357 162.858 26.9357C164.348 26.9357 165.746 26.656 167.049 26.0967C167.681 25.8251 168.273 25.503 168.828 25.1345C169.387 24.7538 169.922 24.3152 170.431 23.8135ZM178.517 12.0167C178.874 13.3454 179.071 14.7256 179.072 16.1713C179.072 17.0144 178.987 17.8383 178.859 18.6511C178.415 21.7558 177.114 24.4849 174.955 26.8393C174.738 27.0836 174.528 27.332 174.295 27.5642C174.09 27.7681 173.867 27.9478 173.652 28.1397C173.014 28.7283 172.356 29.2674 171.666 29.7319L174.275 32.3408H151.438L154.03 29.7491C153.113 29.1352 152.241 28.4194 151.417 27.5873C148.854 25.0501 147.347 22.0686 146.856 18.659C146.727 17.8432 146.642 17.0163 146.642 16.1701C146.642 14.8586 146.807 13.6005 147.101 12.3848C147.651 10.0141 148.725 7.85343 150.354 5.91576C150.613 5.60376 150.894 5.30895 151.177 5.01613C151.259 4.93031 151.331 4.83944 151.417 4.75364C154.524 1.58424 158.329 0 162.834 0C167.023 0 170.618 1.40844 173.635 4.18605V4.14567C173.861 4.34153 174.083 4.54146 174.296 4.75248C175.066 5.51475 175.747 6.34769 176.347 7.24526C177.23 8.5285 177.893 9.89871 178.343 11.3536C178.345 11.3617 178.35 11.3687 178.352 11.3758C178.416 11.5859 178.461 11.8037 178.517 12.0167ZM177.861 18.5079C177.998 17.6417 178.063 16.8814 178.062 16.1685C178.062 14.8701 177.887 13.5606 177.542 12.2753L177.481 12.031C177.454 11.9189 177.427 11.8078 177.394 11.6978L177.393 11.6958L177.379 11.6543C176.957 10.2913 176.33 9.001 175.514 7.81663C175.001 7.04933 174.432 6.34259 173.818 5.7064L172.95 4.92796C170.085 2.29172 166.776 1.00941 162.833 1.00941C158.571 1.00941 155.073 2.46532 152.138 5.45996C152.099 5.49831 152.071 5.53161 152.043 5.56391C151.997 5.6154 151.952 5.66588 151.903 5.71637C151.644 5.98496 151.372 6.26865 151.13 6.56046C149.624 8.35364 148.6 10.3881 148.084 12.6123C147.791 13.8199 147.651 14.9811 147.651 16.1694C147.651 16.8832 147.717 17.6455 147.853 18.5007C148.314 21.7074 149.752 24.5184 152.126 26.87C152.89 27.6404 153.717 28.3249 154.591 28.9105L155.612 29.594L154.743 30.4633L153.875 31.3316H171.838L170.085 29.5789L171.103 28.8943C171.707 28.4885 172.317 27.9988 172.968 27.398C173.055 27.3203 173.131 27.2557 173.206 27.19C173.334 27.08 173.463 26.9699 173.583 26.8498C173.748 26.6842 173.902 26.5085 174.056 26.3328L174.2 26.1692C176.22 23.9672 177.448 21.3932 177.861 18.5079ZM200.385 0.218069V5.61067H194.992V0.218069H200.385ZM199.376 4.60025V1.22699H196.002V4.60025H199.376ZM211.16 0.218069L216.567 0.217935V19.0899C216.567 22.8177 215.246 26.003 212.606 28.6434C209.933 31.2533 206.75 32.5578 203.052 32.5578C199.386 32.5578 196.218 31.2533 193.546 28.6434C190.937 25.9718 189.632 22.7874 189.632 19.0899V5.60961H194.991V19.0899C194.991 21.3273 195.768 23.2225 197.322 24.7755C198.907 26.3596 200.817 27.1522 203.053 27.1522C205.291 27.1522 207.186 26.3596 208.739 24.7755C210.353 23.1913 211.162 21.2972 211.162 19.0899H211.16V0.218069ZM215.557 19.0901V1.22756H212.17V18.0794L212.172 19.0891C212.172 21.5657 211.255 23.7203 209.446 25.4954C207.717 27.2602 205.562 28.1619 203.054 28.1619C200.55 28.1619 198.382 27.2633 196.609 25.4893C194.866 23.7487 193.982 21.5951 193.982 19.09V6.61919H190.642V19.09C190.642 22.5461 191.829 25.4399 194.269 27.9375C196.751 30.3617 199.63 31.5481 203.053 31.5481C206.508 31.5481 209.402 30.3617 211.901 27.9214C214.359 25.4628 215.557 22.5713 215.557 19.0901ZM248.654 0.104877H254.059V16.3169L248.654 11.4505V0.104877ZM253.05 14.0507V1.11437H249.663V11.001L253.05 14.0507ZM227.125 32.4454V0.104604L254.06 24.3579V32.4917L232.484 13.1057V32.4444L227.125 32.4454ZM228.135 2.37335V31.435H231.475V10.842L233.159 12.3556L253.051 30.2273V24.8075L228.135 2.37335ZM290.273 9.95034C291.127 11.9071 291.554 13.9889 291.552 16.193C291.552 18.4002 291.125 20.481 290.271 22.4376C289.417 24.3954 288.258 26.1128 286.8 27.5876C285.337 29.0637 283.622 30.2279 281.649 31.082C279.677 31.9372 277.588 32.3644 275.382 32.3644H264.617V18.8979H270.025V26.958H275.383C276.874 26.958 278.272 26.6783 279.576 26.119C280.881 25.5597 282.023 24.7832 283.002 23.7887C283.981 22.7952 284.749 21.6452 285.308 20.3407C285.868 19.0352 286.147 17.654 286.147 16.193C286.147 14.7341 285.868 13.3509 285.308 12.0464C284.749 10.7419 283.971 9.59193 282.978 8.59838C281.984 7.6039 280.834 6.82749 279.53 6.26811C278.226 5.70773 276.842 5.42909 275.383 5.42909H269.978L264.618 0.0235626H275.383C277.588 0.0235626 279.671 0.451639 281.628 1.30588C283.586 2.16106 285.301 3.32613 286.777 4.80122C288.252 6.27735 289.418 7.99384 290.273 9.95034ZM289.348 22.0342C290.141 20.2148 290.545 18.2511 290.545 16.1953C290.545 14.1396 290.142 12.1739 289.349 10.3546C288.549 8.52411 287.444 6.89656 286.064 5.51549C284.683 4.13627 283.055 3.03172 281.225 2.23209C279.405 1.43748 277.439 1.03456 275.385 1.03456H267.043L270.4 4.42099H275.385C276.979 4.42099 278.507 4.73095 279.931 5.34182C281.345 5.94761 282.611 6.80386 283.694 7.88519C284.775 8.96653 285.63 10.2336 286.238 11.6501C286.849 13.0758 287.159 14.6043 287.159 16.1946C287.159 17.7848 286.849 19.3134 286.238 20.7401C285.631 22.1546 284.785 23.4197 283.723 24.499C282.658 25.5814 281.397 26.4396 279.976 27.0484C278.55 27.6593 277.006 27.9692 275.385 27.9692H269.017V19.9071H265.629V31.3546H275.384C277.44 31.3546 279.414 30.9517 281.249 30.1561C283.094 29.3575 284.721 28.255 286.084 26.8777C287.448 25.4985 288.546 23.8688 289.348 22.0342Z"
        fill="#0067FF" />
</svg>